<svg xmlns="http://www.w3.org/2000/svg" xml:space="preserve" id="Logo" x="0" y="0" style="enable-background:new 0 0 214.9 148.8" version="1.1" viewBox="0 0 214.9 148.8">
  <style>
    .st4{fill:#fff}
  </style>
  <g id="Logo_Urlaubsmarke">
    <path id="Fläche_Sonnengelb" d="M200.7 45.2c-6.4-12.8-16-23.6-28.7-29.5-4.4-2.1-9.6-3.7-15.5-4.9-13.7-7.1-28.9-11-39.9-10.8-21.2.4-38.5 3.6-54.1 11.7-.8.2-1.5.4-2.3.6-42.7 12.3-78.8 58.3-49.6 99.4 12.1 17 28.7 26 46.7 29.8 22.7 11.4 57.4 8.2 86.7-1.1 24.8-2.3 41.6-7.7 51.7-18 2.4-2.4 4.4-5.1 6.2-8.1 5.7-4.5 9.9-11 12-21 2.8-13.6.3-33.3-13.2-48.1z" style="opacity:.6;fill:#f2b700"/>
    <g style="opacity:.9">
      <path id="Fläche_Goldrutengelb" d="M200.7 45.2c-4.5-4.9-10.3-9.3-17.5-12.8-6.3-8.8-16.1-16.2-26.7-21.6-12.7-2.6-28.4-3.1-45.6-1.1-13.2-2.8-28.7-3.3-48.4 2.1-9.7 5.1-18.7 12.1-27.6 21.5-40.6 25.1-26.8 73.3-3 87.2 1.1.6 2.1 1.2 3.2 1.8 3.8 4.8 8.2 9.4 13.2 13.6 2.7 2.3 5.7 4.2 9 5.8 15.3 3.2 31.7 2.7 47.4.3 4.1.1 8.1.1 12 .1 10-.2 19.1-.6 27.3-1.4 15.1-4.8 28.9-11.1 38.8-17.8 7.4-1.9 13.9-4.3 19-8.3 11-19 10-47.2-1.1-69.4z" style="fill:#efa800"/>
    </g>
    <path id="Fläche_Sanddornorange" d="M110.9 9.6C89.5 12.1 66 18.2 43.2 28.7c-3 1.4-5.7 2.8-8.2 4.4-2.1 2.2-4.2 4.6-6.2 7-17.4 20.9-14.6 55.6 6.3 82 26.3 14.7 48.9 18.9 69.6 19.6 13-2.1 25.6-5.5 36.6-9.2 15.2-5.2 29.6-6.9 41.5-9.9 2.4-1.6 4.6-3.3 6.6-5 23.7-20.5 3.9-53.7.4-70.4-1.1-5.3-3.4-10.2-6.7-14.8-5.8-2.7-12.5-4.8-20.2-6.1-17-2.9-32-12.4-52-16.7z" style="fill:#f18700"/>
    <g id="MV_tut_gut.">
      <path id="tut_gut." d="M105.1 101.5c-.4.3-1.3.8-2.4.8-1.5 0-2.9-.8-2.9-3.1v-5.8h-1.7c.1-.6.2-1.1.2-1.7l1.6-.3.3-2c.5-.2 1.1-.3 1.7-.5v2.7h3.2c0 .6-.1 1.1-.2 1.7h-3v5.3c0 1.3.6 1.7 1.5 1.7.8 0 1.6-.4 1.9-.7.1.6 0 1.2-.2 1.9zm10.3.7c-.3-.6-.6-1.5-.7-2.6-.7 1.9-2.1 2.7-3.8 2.7-2.1 0-3.3-1.3-3.3-3.8V92c.6-.3 1.4-.4 2.1-.6V98c0 1.5.7 2.2 1.8 2.2 1.6 0 3.1-1.6 3.1-3.9v-1.5c0-1.6 0-2.8-.1-3.2.7-.1 1.4-.1 2.1-.1V98c0 1.5.2 2.9.5 3.7-.5.3-1.1.5-1.7.5zm10.6-.7c-.4.3-1.3.8-2.4.8-1.5 0-2.9-.8-2.9-3.1v-5.8H119c.1-.6.2-1.1.2-1.7l1.6-.3.3-2c.5-.2 1.1-.3 1.7-.5v2.7h3.2c0 .6-.1 1.1-.2 1.7h-3v5.3c0 1.3.6 1.7 1.5 1.7.8 0 1.6-.4 1.9-.7.1.6-.1 1.2-.2 1.9zm13.9-1.1c1.8.3 2.5 1.2 2.5 2.4 0 2.1-2.1 3.8-5.4 3.8-2.6 0-4.5-1.1-4.5-2.6 0-1.4 1.2-2.3 2.7-2.7-.8-.4-1.3-1-1.3-1.8 0-.6.3-1.1.8-1.5-1.1-.6-1.8-1.6-1.8-2.9 0-2.2 2.1-3.6 4.5-3.6.6 0 1.2.1 1.7.3h3.5c0 .5-.1 1-.2 1.6l-1.5-.4c.4.5.7 1.2.7 2 0 2.2-2.1 3.6-4.5 3.6-.4 0-.9 0-1.2-.1-.1.1-.1.3-.1.4 0 .4.3.9 1.7 1.1l2.4.4zm.5 2.8c0-.5-.3-.8-1.6-1.1l-2-.4c-1.4.3-2.5.9-2.5 1.7 0 .8 1.3 1.4 2.9 1.4 1.9.1 3.2-.7 3.2-1.6zm-5.5-8.2c0 1.1 1 1.9 2.3 1.9 1.3 0 2.4-.8 2.4-1.9 0-1.1-1-1.9-2.3-1.9-1.3-.1-2.4.7-2.4 1.9zm17.6 7.2c-.3-.6-.6-1.5-.7-2.6-.7 1.9-2.1 2.7-3.8 2.7-2.1 0-3.3-1.3-3.3-3.8V92c.6-.3 1.4-.4 2.1-.6V98c0 1.5.7 2.2 1.8 2.2 1.6 0 3.1-1.6 3.1-3.9v-1.5c0-1.6 0-2.8-.1-3.2.7-.1 1.4-.1 2.1-.1V98c0 1.5.2 2.9.5 3.7-.5.3-1.1.5-1.7.5zm10.6-.7c-.4.3-1.3.8-2.4.8-1.5 0-2.9-.8-2.9-3.1v-5.8h-1.7c.1-.6.2-1.1.2-1.7l1.6-.3.3-2c.5-.2 1.1-.3 1.7-.5v2.7h3.2c0 .6-.1 1.1-.2 1.7h-3v5.3c0 1.3.6 1.7 1.5 1.7.8 0 1.6-.4 1.9-.7.1.6 0 1.2-.2 1.9zm2.1-.4c0-.8.5-1.4 1.3-1.4.7 0 1.1.5 1.1 1.2 0 .8-.5 1.4-1.3 1.4-.7 0-1.1-.5-1.1-1.2z" class="st4"/>
      <path id="V" d="M122.2 48.9 107.6 80h-5.7L87.4 48.9s0-.1.1-.1h.9c.9 0 2.5 0 3.6.4 1.4.5 2.6 1.8 3.4 3.5 1.5 3 9.4 19.6 9.4 19.6s7.9-16.6 9.4-19.6c.8-1.7 2-3 3.4-3.5 1.1-.3 2.7-.4 3.6-.4h.9c.1 0 .1 0 .1.1z" class="st4"/>
      <path id="M" d="M84.1 48.8h-.4c-.9 0-2.9.1-3.9.4-1.8.6-3.1 2.1-5.3 6.6-1.5 3-5.8 11.9-5.8 11.9s-4.3-9-5.8-11.9c-2.2-4.5-3.5-6-5.3-6.6-.9-.3-2.9-.4-3.9-.4h-.4L51.2 80h5.9l1.5-22.4L67 75.2h3.4l8.4-17.6L80.3 80h5.9l-2.1-31.2z" class="st4"/>
      <g id="Bildmarke">
        <linearGradient id="SVGID_1_" x1="128.526" x2="164.88" y1="70.96" y2="79.353" gradientUnits="userSpaceOnUse">
          <stop offset=".05" style="stop-color:#289b38"/>
          <stop offset=".364" style="stop-color:#319f40"/>
          <stop offset=".65" style="stop-color:#3da54c"/>
          <stop offset=".95" style="stop-color:#289b38"/>
        </linearGradient>
        <path d="M152.4 69.7c-5.7.3-12.8 2.6-17.2 3.4-3.6.6-7.2.6-7.2.6v6.2h36.9v-9.7s-3.1-.6-8.4-.6c-1.4 0-2.7 0-4.1.1z" style="fill:url(#SVGID_1_)"/>
        <linearGradient id="SVGID_00000085231026427061831180000011074622304188873656_" x1="128.526" x2="164.88" y1="70.96" y2="79.353" gradientUnits="userSpaceOnUse">
          <stop offset=".05" style="stop-color:#289b38"/>
          <stop offset=".364" style="stop-color:#319f40"/>
          <stop offset=".65" style="stop-color:#3da54c"/>
          <stop offset=".95" style="stop-color:#289b38"/>
        </linearGradient>
        <path d="M152.4 69.7c-5.7.3-12.8 2.6-17.2 3.4-3.6.6-7.2.6-7.2.6v6.2h36.9v-9.7s-3.1-.6-8.4-.6c-1.4 0-2.7 0-4.1.1z" style="fill:url(#SVGID_00000085231026427061831180000011074622304188873656_)"/>
        <linearGradient id="SVGID_00000106147508709429013280000003637890450147233973_" x1="146.322" x2="146.322" y1="62.048" y2="73.688" gradientUnits="userSpaceOnUse">
          <stop offset="0" style="stop-color:#267bad"/>
          <stop offset=".007" style="stop-color:#257aac"/>
          <stop offset=".166" style="stop-color:#116da4"/>
          <stop offset=".323" style="stop-color:#0466a0"/>
          <stop offset=".474" style="stop-color:#00639e"/>
        </linearGradient>
        <path d="M146.3 62c-8.5 0-18.4.7-18.4.7v10.9s3.6 0 7.2-.6c4.4-.7 11.5-3.1 17.2-3.4 1.4-.1 2.8-.1 4-.1 5.3 0 8.4.6 8.4.6v-7.7c0 .1-9.5-.4-18.4-.4z" style="fill:url(#SVGID_00000106147508709429013280000003637890450147233973_)"/>
        <path d="M155.5 48.7s-1.6 4.1-2.6 9.3c-.6 2.7-.7 3.8-.7 4.1 6.7.1 12.5.4 12.5.4V48.7h-9.2z" style="fill:#f2b700"/>
        <linearGradient id="SVGID_00000177450888018651523460000008638116815489885369_" x1="141.722" x2="141.722" y1="62.782" y2="48.75" gradientUnits="userSpaceOnUse">
          <stop offset="0" style="stop-color:#6dc6e8"/>
          <stop offset=".177" style="stop-color:#4dbbe2"/>
          <stop offset=".44" style="stop-color:#23aeda"/>
          <stop offset=".647" style="stop-color:#0aa5d5"/>
          <stop offset=".77" style="stop-color:#00a2d3"/>
          <stop offset=".854" style="stop-color:#06a1d6"/>
          <stop offset="1" style="stop-color:#0ca0d9"/>
        </linearGradient>
        <path d="M152.9 58c1-5.1 2.6-9.3 2.6-9.3h-27.7v14s9.9-.7 18.4-.7c2 0 4 0 5.9.1.2-.2.3-1.4.8-4.1z" style="fill:url(#SVGID_00000177450888018651523460000008638116815489885369_)"/>
        <linearGradient id="SVGID_00000047740449376351609380000007712415362303414715_" x1="164.709" x2="164.709" y1="62.492" y2="62.489" gradientUnits="userSpaceOnUse">
          <stop offset="0" style="stop-color:#6dc6e8"/>
          <stop offset=".069" style="stop-color:#63c2e7"/>
          <stop offset=".345" style="stop-color:#3db3e1"/>
          <stop offset=".601" style="stop-color:#22a9dc"/>
          <stop offset=".827" style="stop-color:#12a2da"/>
          <stop offset="1" style="stop-color:#0ca0d9"/>
        </linearGradient>
        <path d="M164.7 62.5z" style="fill:url(#SVGID_00000047740449376351609380000007712415362303414715_)"/>
        <linearGradient id="SVGID_00000088848732802988806370000008573686812139077261_" x1="164.157" x2="164.157" y1="62.468" y2="62.465" gradientUnits="userSpaceOnUse">
          <stop offset="0" style="stop-color:#6dc6e8"/>
          <stop offset=".069" style="stop-color:#63c2e7"/>
          <stop offset=".345" style="stop-color:#3db3e1"/>
          <stop offset=".601" style="stop-color:#22a9dc"/>
          <stop offset=".827" style="stop-color:#12a2da"/>
          <stop offset="1" style="stop-color:#0ca0d9"/>
        </linearGradient>
        <path d="M164.2 62.5s-.1 0 0 0c-.1 0 0 0 0 0z" style="fill:url(#SVGID_00000088848732802988806370000008573686812139077261_)"/>
      </g>
    </g>
  </g>
</svg>
