<?xml version="1.0" encoding="UTF-8"?>
<svg id="Ebene_1" data-name="Ebene 1" xmlns="http://www.w3.org/2000/svg" viewBox="0 0 224.91 95.98">
  <defs>
    <style>
      .cls-1 {
        fill: #f08907;
      }

      .cls-2 {
        fill: #0664a0;
      }

      .cls-3 {
        fill: #0665a0;
      }
    </style>
  </defs>
  <path class="cls-2" d="m156.64,36.72c-2.1-.1-3.4-1.2-4.6-2.7-3.8-5.1-7.6-10.2-11.4-15.3-1.3-1.8-2.6-3.5-4-5.2-3-3.6-5.9-3.7-8.8,0-3.9,5-7.7,10.2-11.6,15.2-1.3,1.6-2.6,3.3-4.2,4.6-5.3,4.5-12.4,4.6-17.8.2-1.6-1.3-3-2.9-4.3-4.6-3.5-4.5-6.8-9-10.2-13.5-.4-.5-.8-1-1.2-1.5-3.3-4.1-6.1-4.2-9.4-.1-3.1,3.8-5.9,7.8-8.9,11.8-2.1,2.8-4.1,5.5-6.2,8.3-.5.7-1,1.3-1.7,1.9-1.6,1.3-3.9,1.3-5.5.1-1.8-1.3-2.5-3.6-1.7-5.5.3-.8.8-1.5,1.3-2.1,5-6.6,9.9-13.2,14.9-19.8.9-1.2,2-2.4,3.2-3.4,5.5-4.8,12.8-4.8,18.3,0,1.6,1.4,3,3.2,4.4,4.9,3.4,4.5,6.8,9,10.2,13.5.6.7,1.1,1.5,1.8,2.2,2.3,2.3,4.8,2.4,7.2.2.7-.6,1.3-1.4,1.8-2.1,3.7-4.8,7.3-9.7,11-14.5,1.1-1.5,2.4-2.9,3.8-4.1,5.5-4.7,12.8-4.6,18.3.1,1.2,1,2.3,2.2,3.2,3.4,5,6.6,9.9,13.2,14.9,19.8.4.6.9,1.2,1.2,1.8,1.5,2.8-.8,6.4-4,6.4Z"/>
  <path class="cls-3" d="m183.74,36.82c-4.9-.3-8.8-2.3-11.7-6-5.5-7.1-10.8-14.3-16.2-21.5-1.9-2.6-1.5-5.1.7-6.9,2.2-1.7,4.7-1.3,6.8,1.3,3.8,4.9,7.4,9.8,11.1,14.7,1.3,1.8,2.6,3.5,3.9,5.3,3.6,4.7,6.6,4.8,10.3.1,3.5-4.5,6.9-9.2,10.3-13.8,1.7-2.3,3.3-4.5,5.1-6.7,1.3-1.7,3.1-2.4,5.3-1.7,3,1.1,4.1,4.4,2.3,7.2-1.4,2.1-3,4-4.5,6-3.8,5.1-7.6,10.2-11.5,15.3-2.8,4.1-6.8,6.5-11.9,6.7Z"/>
  <path class="cls-1" d="m20.44,10.82H6.44c-1.1,0-2.3-.2-3.3-.6-1.7-.8-2.6-3-2.3-4.8.3-1.9,2-3.6,4-3.9.5-.1,1,0,1.6,0h42.3c2.4.4,4.2,2.5,4.1,4.8-.1,2.4-1.9,4.4-4.4,4.5-3.7.1-7.3.2-11,0-3.4-.2-5.8,1.1-7.8,3.7-4.8,6.5-9.6,12.9-14.5,19.3-.5.7-1,1.4-1.6,1.9-1.8,1.6-4.2,1.5-6-.1-1.9-1.6-2.4-3.9-1-5.9,2.8-4,5.8-7.9,8.7-11.8,1.7-2.3,3.3-4.5,5.2-7.1Z"/>
  <g>
    <path class="cls-2" d="m16.94,54.02h-6.9v18.7h-1.7v-18.7H1.44v-1.4h15.4v1.4h.1Z"/>
    <path class="cls-2" d="m17.04,65.02c0-1.4.3-2.7.8-3.9.6-1.1,1.3-2,2.4-2.7,1-.6,2.2-1,3.5-1,2,0,3.6.7,4.8,2.1,1.2,1.4,1.8,3.2,1.8,5.5v.3c0,1.4-.3,2.7-.8,3.9-.6,1.2-1.3,2-2.4,2.7s-2.2.9-3.5.9c-2,0-3.6-.7-4.8-2.1-1.2-1.4-1.9-3.2-1.9-5.5v-.2h.1Zm1.7.5c0,1.8.5,3.2,1.4,4.4.9,1.1,2.1,1.7,3.6,1.7s2.7-.6,3.6-1.7c.9-1.1,1.4-2.7,1.4-4.5v-.3c0-1.1-.2-2.2-.6-3.1-.4-.9-1-1.7-1.8-2.2s-1.6-.8-2.6-.8c-1.5,0-2.7.6-3.6,1.7-.9,1.2-1.4,2.7-1.4,4.5,0,0,0,.3,0,.3Z"/>
    <path class="cls-2" d="m43.04,70.82c-1,1.4-2.6,2.2-4.8,2.2-1.6,0-2.8-.5-3.6-1.4s-1.3-2.3-1.3-4.1v-9.7h1.6v9.5c0,2.8,1.1,4.3,3.4,4.3s3.9-1,4.5-3v-10.8h1.7v14.9h-1.6l.1-1.9Z"/>
    <path class="cls-2" d="m55.34,59.22c-.3-.1-.7-.1-1.1-.1-1,0-1.9.3-2.6.9-.7.6-1.2,1.4-1.5,2.5v10.2h-1.6v-14.9h1.6v2.4c.9-1.8,2.3-2.6,4.2-2.6.5,0,.8.1,1.1.2l-.1,1.4Z"/>
    <path class="cls-2" d="m57.44,53.52c0-.3.1-.6.3-.8.2-.2.5-.3.8-.3s.6.1.8.3.3.5.3.8-.1.6-.3.8-.5.3-.8.3-.6-.1-.8-.3c-.2-.3-.3-.5-.3-.8Zm2,19.2h-1.7v-14.9h1.7v14.9Z"/>
    <path class="cls-2" d="m72.44,68.92c0-.8-.3-1.5-1-2s-1.6-.9-3-1.2-2.4-.6-3.1-1-1.3-.8-1.6-1.3-.5-1.2-.5-1.9c0-1.2.5-2.1,1.5-2.9,1-.8,2.2-1.2,3.8-1.2,1.7,0,3,.4,4,1.2s1.5,1.9,1.5,3.2h-1.7c0-.9-.4-1.6-1.1-2.2-.7-.6-1.7-.9-2.8-.9s-2,.2-2.6.7c-.7.5-1,1.1-1,1.9,0,.7.3,1.3.8,1.7s1.5.8,3,1.1c1.4.3,2.5.7,3.3,1.1.7.4,1.3.9,1.6,1.4s.5,1.2.5,2c0,1.3-.5,2.3-1.5,3s-2.3,1.1-4,1.1-3.1-.4-4.2-1.3-1.6-1.9-1.6-3.2h1.7c.1,1,.5,1.7,1.2,2.3.7.5,1.7.8,3,.8,1.1,0,2.1-.3,2.8-.8.6-.2,1-.8,1-1.6Z"/>
    <path class="cls-2" d="m78.84,57.82l.1,2.4c.6-.9,1.2-1.6,2.1-2s1.7-.7,2.8-.7c2.4,0,3.8,1,4.5,2.9.5-.9,1.2-1.6,2.1-2.1s1.9-.8,3-.8c3.2,0,4.8,1.7,4.9,5.2v10h-1.7v-9.8c0-1.3-.3-2.3-.9-3s-1.5-1-2.8-1c-1.2,0-2.2.4-3,1.2s-1.3,1.7-1.4,2.7v9.9h-1.7v-10c0-1.3-.3-2.2-.9-2.9-.6-.6-1.5-.9-2.7-.9-1,0-1.9.3-2.7.9-.7.6-1.3,1.5-1.7,2.6v10.2h-1.7v-14.9h1.7v.1Z"/>
    <path class="cls-2" d="m111.54,70.82c-1,1.4-2.6,2.2-4.8,2.2-1.6,0-2.8-.5-3.6-1.4-.8-.9-1.3-2.3-1.3-4.1v-9.7h1.6v9.5c0,2.8,1.1,4.3,3.4,4.3s3.9-1,4.5-3v-10.8h1.7v14.9h-1.6l.1-1.9Z"/>
    <path class="cls-2" d="m126.04,68.92c0-.8-.3-1.5-1-2s-1.6-.9-3-1.2-2.4-.6-3.1-1c-.7-.4-1.3-.8-1.6-1.3-.4-.5-.5-1.2-.5-1.9,0-1.2.5-2.1,1.5-2.9,1-.8,2.2-1.2,3.8-1.2,1.7,0,3,.4,4,1.2s1.5,1.9,1.5,3.2h-1.7c0-.9-.4-1.6-1.1-2.2-.7-.6-1.7-.9-2.8-.9s-2,.2-2.6.7-1,1.1-1,1.9c0,.7.3,1.3.8,1.7s1.5.8,3,1.1c1.4.3,2.5.7,3.3,1.1.7.4,1.3.9,1.6,1.4s.5,1.2.5,2c0,1.3-.5,2.3-1.5,3s-2.3,1.1-4,1.1-3.1-.4-4.2-1.3c-1.1-.8-1.6-1.9-1.6-3.2h1.7c.1,1,.5,1.7,1.2,2.3.7.5,1.7.8,3,.8,1.1,0,2.1-.3,2.8-.8s1-.8,1-1.6Z"/>
    <path class="cls-2" d="m135.64,70.42l4.5-12.6h1.7l-5.6,14.9h-1.3l-5.6-14.9h1.7l4.6,12.6Z"/>
    <path class="cls-2" d="m149.94,73.02c-1.3,0-2.4-.3-3.4-.9s-1.8-1.5-2.4-2.6-.9-2.4-.9-3.8v-.6c0-1.4.3-2.7.8-3.9.6-1.1,1.3-2.1,2.3-2.7s2.1-1,3.2-1c1.8,0,3.2.6,4.3,1.9,1.1,1.2,1.6,2.9,1.6,5.1v.9h-10.6v.3c0,1.7.5,3.1,1.5,4.2,1,1.1,2.2,1.7,3.7,1.7.9,0,1.7-.2,2.3-.5.7-.3,1.3-.8,1.8-1.5l1,.8c-1.2,1.7-2.9,2.6-5.2,2.6Zm-.4-14.1c-1.2,0-2.3.5-3.1,1.4s-1.4,2.1-1.6,3.7h9v-.2c0-1.4-.5-2.6-1.2-3.5s-1.8-1.4-3.1-1.4Z"/>
    <path class="cls-2" d="m165.14,59.22c-.3-.1-.7-.1-1.1-.1-1,0-1.9.3-2.6.9-.7.6-1.2,1.4-1.5,2.5v10.2h-1.6v-14.9h1.6v2.4c.9-1.8,2.3-2.6,4.2-2.6.5,0,.8.1,1.1.2l-.1,1.4Z"/>
    <path class="cls-2" d="m179.34,65.42c0,2.3-.5,4.2-1.5,5.5-1,1.4-2.4,2-4.2,2-2.1,0-3.7-.8-4.7-2.3l-.1,2h-1.5v-21.2h1.6v8.4c1-1.6,2.6-2.4,4.7-2.4,1.8,0,3.2.7,4.2,2s1.5,3.2,1.5,5.6v.4Zm-1.6-.3c0-2-.4-3.5-1.1-4.6-.8-1.1-1.8-1.6-3.2-1.6-1.1,0-2,.3-2.7.8s-1.3,1.3-1.7,2.3v6.7c.8,1.9,2.3,2.8,4.4,2.8,1.4,0,2.4-.5,3.2-1.6.7-1.1,1.1-2.7,1.1-4.8Z"/>
    <path class="cls-2" d="m192.04,72.72c-.2-.5-.3-1.2-.3-2.1-.6.8-1.3,1.3-2.2,1.7s-1.8.6-2.8.6c-1.4,0-2.6-.4-3.5-1.2s-1.3-1.8-1.3-3c0-1.5.6-2.6,1.8-3.4,1.2-.8,2.9-1.3,5.1-1.3h3v-1.7c0-1.1-.3-1.9-1-2.5s-1.6-.9-2.9-.9c-1.1,0-2.1.3-2.9.9-.8.6-1.1,1.3-1.1,2.1h-1.7c0-1.2.6-2.2,1.7-3.1,1.1-.9,2.5-1.3,4.1-1.3,1.7,0,3,.4,3.9,1.2s1.5,2,1.5,3.5v7.1c0,1.4.2,2.5.5,3.2v.2h-1.9Zm-5.2-1.2c1.1,0,2.1-.3,3-.8s1.5-1.2,1.9-2.1v-3.3h-3c-1.6,0-2.9.3-3.9.9s-1.4,1.4-1.4,2.4c0,.8.3,1.5.9,2.1s1.5.8,2.5.8Z"/>
    <path class="cls-2" d="m198.84,57.82l.1,2.6c.6-.9,1.3-1.6,2.1-2.1s1.8-.7,2.8-.7c1.6,0,2.8.5,3.6,1.4s1.2,2.3,1.2,4.1v9.8h-1.6v-10c0-1.3-.3-2.3-.8-3-.6-.7-1.4-1-2.7-1-1,0-1.9.3-2.7,1-.8.6-1.4,1.5-1.7,2.6v10.2h-1.6v-14.9h1.3Z"/>
    <path class="cls-2" d="m211.74,65.12c0-2.3.5-4.2,1.6-5.5,1-1.4,2.4-2.1,4.2-2.1,2,0,3.5.8,4.6,2.4v-8.4h1.6v21.2h-1.5l-.1-2c-1.1,1.5-2.6,2.3-4.7,2.3-1.7,0-3.1-.7-4.2-2.1-1.1-1.4-1.6-3.3-1.6-5.6v-.2h.1Zm1.7.3c0,1.9.4,3.4,1.1,4.5.8,1.1,1.8,1.6,3.2,1.6,2,0,3.5-.9,4.3-2.7v-7c-.9-1.9-2.3-2.9-4.3-2.9-1.4,0-2.5.5-3.2,1.6s-1.1,2.8-1.1,4.9Z"/>
  </g>
  <g>
    <path class="cls-2" d="m11.54,78.22l3.4,9.6,3.4-9.6h3.6v13.2h-2.8v-3.6l.3-6.2-3.6,9.8h-1.9l-3.5-9.8.3,6.2v3.6h-2.7v-13.2h3.5Z"/>
    <path class="cls-2" d="m28.24,91.62c-1.4,0-2.6-.4-3.5-1.3s-1.4-2.1-1.4-3.5v-.3c0-1,.2-1.9.6-2.6s.9-1.4,1.6-1.8c.7-.4,1.5-.6,2.4-.6,1.3,0,2.4.4,3.2,1.3.8.8,1.2,2,1.2,3.6v1.1h-6.2c.1.6.3,1.2.8,1.5.4.4,1,.6,1.6.6,1,0,1.8-.4,2.4-1.1l1.3,1.4c-.4.6-.9,1-1.6,1.3s-1.6.4-2.4.4Zm-.3-8c-.5,0-.9.2-1.3.5s-.5.9-.6,1.5h3.6v-.2c0-.6-.2-1-.5-1.3-.2-.4-.6-.5-1.2-.5Z"/>
    <path class="cls-2" d="m37.54,89.52c.5,0,.9-.1,1.2-.4.3-.3.5-.6.5-1.1h2.5c0,.7-.2,1.3-.5,1.8-.4.6-.8,1-1.5,1.3s-1.3.5-2.1.5c-1.4,0-2.5-.4-3.3-1.3-.8-.9-1.2-2.1-1.2-3.7v-.2c0-1.5.4-2.7,1.2-3.6s1.9-1.3,3.3-1.3c1.2,0,2.2.3,2.9,1s1.1,1.6,1.1,2.8h-2.5c0-.5-.2-.9-.5-1.2s-.7-.5-1.2-.5c-.6,0-1.1.2-1.4.7s-.5,1.2-.5,2.2v.3c0,1,.2,1.7.5,2.2.4.3.9.5,1.5.5Z"/>
    <path class="cls-2" d="m46.44,87.52l-.9.9v3h-2.6v-13.9h2.6v7.7l.5-.7,2.5-2.9h3.1l-3.5,4.1,3.8,5.7h-3l-2.5-3.9Z"/>
    <path class="cls-2" d="m55.24,91.42h-2.6v-13.9h2.6v13.9Z"/>
    <path class="cls-2" d="m61.64,91.62c-1.4,0-2.6-.4-3.5-1.3s-1.4-2.1-1.4-3.5v-.3c0-1,.2-1.9.6-2.6s.9-1.4,1.6-1.8c.7-.4,1.5-.6,2.4-.6,1.3,0,2.4.4,3.2,1.3.8.8,1.2,2,1.2,3.6v1.1h-6.2c.1.6.3,1.2.8,1.5.4.4,1,.6,1.6.6,1,0,1.8-.4,2.4-1.1l1.3,1.4c-.4.6-.9,1-1.6,1.3s-1.6.4-2.4.4Zm-.3-8c-.5,0-.9.2-1.3.5s-.5.9-.6,1.5h3.7v-.2c0-.6-.2-1-.5-1.3-.3-.4-.7-.5-1.3-.5Z"/>
    <path class="cls-2" d="m69.34,81.62l.1,1.1c.7-.9,1.6-1.3,2.8-1.3,1,0,1.8.3,2.3.9s.8,1.5.8,2.7v6.3h-2.6v-6.3c0-.6-.1-1-.4-1.2-.2-.2-.6-.4-1.2-.4-.7,0-1.3.3-1.7.9v6.9h-2.6v-9.8h2.5v.2Z"/>
    <path class="cls-2" d="m85.84,86.62c0,1.6-.3,2.8-1,3.7s-1.6,1.3-2.8,1.3c-1.1,0-1.9-.4-2.5-1.2l-.1,1h-2.4v-13.9h2.6v5c.6-.7,1.4-1.1,2.4-1.1,1.2,0,2.1.4,2.8,1.3.7.9,1,2.1,1,3.7v.2Zm-2.6-.2c0-1-.2-1.7-.5-2.2s-.8-.7-1.4-.7c-.8,0-1.4.3-1.7,1v3.9c.3.7.9,1,1.7,1s1.4-.4,1.7-1.2c.1-.4.2-1,.2-1.8Z"/>
    <path class="cls-2" d="m93.04,90.42c-.6.8-1.5,1.2-2.7,1.2-1.1,0-1.9-.3-2.4-.9s-.8-1.5-.8-2.7v-6.4h2.6v6.3c0,1,.5,1.5,1.4,1.5s1.5-.3,1.8-.9v-6.9h2.6v9.8h-2.4l-.1-1Z"/>
    <path class="cls-2" d="m102.74,84.12c-.4,0-.7-.1-.9-.1-1,0-1.6.3-1.9,1v6.4h-2.6v-9.8h2.5l.1,1.2c.5-.9,1.3-1.3,2.2-1.3.3,0,.6,0,.8.1l-.2,2.5Z"/>
    <path class="cls-2" d="m103.34,86.42c0-1.5.4-2.7,1.1-3.6.7-.9,1.7-1.4,2.9-1.4,1.1,0,1.9.4,2.5,1.1l.1-.9h2.4v9.5c0,.9-.2,1.6-.6,2.2-.4.6-.9,1.1-1.6,1.4s-1.5.5-2.5.5c-.7,0-1.4-.1-2.1-.4-.7-.3-1.2-.7-1.5-1.1l1.2-1.6c.7.7,1.4,1.1,2.4,1.1.7,0,1.2-.2,1.6-.6.4-.4.6-.9.6-1.6v-.5c-.6.7-1.4,1-2.4,1-1.2,0-2.1-.5-2.9-1.4-.7-.9-1.1-2.1-1.1-3.7h-.1Zm2.6.2c0,.9.2,1.6.5,2.1.4.5.8.8,1.5.8.8,0,1.4-.3,1.7-.9v-4.1c-.4-.6-.9-.9-1.7-.9-.6,0-1.1.3-1.5.8-.3.5-.5,1.2-.5,2.2Z"/>
    <path class="cls-2" d="m123.44,88.22l3-9.9h3l-4.6,13.2h-2.8l-4.6-13.2h3l3,9.9Z"/>
    <path class="cls-2" d="m129.44,86.42c0-1,.2-1.8.6-2.6.4-.8.9-1.3,1.6-1.8.7-.4,1.5-.6,2.4-.6,1.3,0,2.4.4,3.2,1.2s1.3,1.9,1.4,3.3v.7c0,1.5-.4,2.7-1.3,3.6s-2,1.4-3.4,1.4-2.5-.5-3.4-1.4-1.3-2.1-1.3-3.7v-.1h.2Zm2.6.2c0,.9.2,1.6.5,2.1s.9.7,1.5.7,1.1-.2,1.5-.7.5-1.3.5-2.3c0-.9-.2-1.6-.5-2.1-.4-.5-.9-.8-1.5-.8s-1.1.2-1.5.7c-.3.6-.5,1.4-.5,2.4Z"/>
    <path class="cls-2" d="m145.54,84.12c-.4,0-.7-.1-.9-.1-1,0-1.6.3-1.9,1v6.4h-2.6v-9.8h2.5l.1,1.2c.5-.9,1.3-1.3,2.2-1.3.3,0,.6,0,.8.1l-.2,2.5Z"/>
    <path class="cls-2" d="m155.34,86.62c0,1.5-.3,2.7-1,3.6-.7.9-1.6,1.4-2.8,1.4-1,0-1.8-.3-2.4-1v4.6h-2.6v-13.6h2.4l.1,1c.6-.8,1.5-1.1,2.5-1.1,1.2,0,2.1.4,2.8,1.3s1,2.1,1,3.7v.1Zm-2.6-.2c0-.9-.2-1.6-.5-2.1s-.8-.7-1.4-.7c-.8,0-1.4.3-1.7.9v4c.3.6.9,1,1.7,1,1.2,0,1.9-1,1.9-3.1Z"/>
    <path class="cls-2" d="m156.24,86.42c0-1,.2-1.8.6-2.6.4-.8.9-1.3,1.6-1.8.7-.4,1.5-.6,2.4-.6,1.3,0,2.4.4,3.2,1.2s1.3,1.9,1.4,3.3v.7c0,1.5-.4,2.7-1.3,3.6s-2,1.4-3.4,1.4-2.5-.5-3.4-1.4-1.3-2.1-1.3-3.7v-.1h.2Zm2.6.2c0,.9.2,1.6.5,2.1s.9.7,1.5.7,1.1-.2,1.5-.7.5-1.3.5-2.3c0-.9-.2-1.6-.5-2.1-.4-.5-.9-.8-1.5-.8s-1.1.2-1.5.7c-.3.6-.5,1.4-.5,2.4Z"/>
    <path class="cls-2" d="m169.34,81.62l.1,1.1c.7-.9,1.6-1.3,2.8-1.3,1.3,0,2.1.5,2.6,1.5.7-1,1.7-1.5,2.9-1.5,1.1,0,1.9.3,2.4.9.5.6.8,1.5.8,2.8v6.3h-2.6v-6.2c0-.6-.1-1-.3-1.2-.2-.3-.6-.4-1.2-.4-.8,0-1.3.4-1.6,1.1v6.7h-2.6v-6.2c0-.6-.1-1-.3-1.2-.2-.3-.6-.4-1.1-.4-.7,0-1.3.3-1.6.9v6.9h-2.6v-9.8h2.3Z"/>
    <path class="cls-2" d="m185.14,81.62l.1,1.1c.7-.9,1.6-1.3,2.8-1.3,1.3,0,2.1.5,2.6,1.5.7-1,1.7-1.5,2.9-1.5,1.1,0,1.9.3,2.4.9.5.6.8,1.5.8,2.8v6.3h-2.6v-6.2c0-.6-.1-1-.3-1.2-.2-.3-.6-.4-1.2-.4-.8,0-1.3.4-1.6,1.1v6.7h-2.6v-6.2c0-.6-.1-1-.3-1.2-.2-.3-.6-.4-1.1-.4-.7,0-1.3.3-1.6.9v6.9h-2.6v-9.8h2.3Z"/>
    <path class="cls-2" d="m202.94,91.62c-1.4,0-2.6-.4-3.5-1.3s-1.4-2.1-1.4-3.5v-.3c0-1,.2-1.9.6-2.6.4-.8.9-1.4,1.6-1.8.7-.4,1.5-.6,2.4-.6,1.3,0,2.4.4,3.2,1.3.8.8,1.2,2,1.2,3.6v1.1h-6.2c.1.6.3,1.2.8,1.5.4.4,1,.6,1.6.6,1,0,1.8-.4,2.4-1.1l1.3,1.4c-.4.6-.9,1-1.6,1.3s-1.6.4-2.4.4Zm-.3-8c-.5,0-.9.2-1.3.5-.3.4-.5.9-.6,1.5h3.6v-.2c0-.6-.2-1-.5-1.3s-.7-.5-1.2-.5Z"/>
    <path class="cls-2" d="m213.64,84.12c-.4,0-.7-.1-.9-.1-1,0-1.6.3-1.9,1v6.4h-2.7v-9.8h2.5l.1,1.2c.5-.9,1.3-1.3,2.2-1.3.3,0,.6,0,.8.1l-.1,2.5Z"/>
    <path class="cls-2" d="m217.04,81.62l.1,1.1c.7-.9,1.6-1.3,2.8-1.3,1,0,1.8.3,2.3.9s.8,1.5.8,2.7v6.3h-2.6v-6.3c0-.6-.1-1-.4-1.2-.2-.2-.6-.4-1.2-.4-.7,0-1.3.3-1.7.9v6.9h-2.6v-9.8h2.5v.2Z"/>
  </g>
</svg>